<?xml version="1.0" standalone="no"?>
<!DOCTYPE svg PUBLIC "-//W3C//DTD SVG 20010904//EN"
 "http://www.w3.org/TR/2001/REC-SVG-20010904/DTD/svg10.dtd">
<svg version="1.0" xmlns="http://www.w3.org/2000/svg"
 width="1280.000000pt" height="720.000000pt" viewBox="0 0 1280.000000 720.000000"
 preserveAspectRatio="xMidYMid meet">
<metadata>
Created by potrace 1.16, written by Peter Selinger 2001-2019
</metadata>
<g transform="translate(0.000000,720.000000) scale(0.100000,-0.100000)"
fill="#000000" stroke="none">
<path d="M5450 4950 l0 -30 65 0 65 0 0 -180 0 -180 35 0 35 0 0 180 0 180 65
0 65 0 0 30 0 30 -165 0 -165 0 0 -30z"/>
<path d="M6010 4770 l0 -210 30 0 30 0 0 95 0 95 105 0 105 0 0 -95 0 -95 30
0 30 0 0 210 0 210 -30 0 -30 0 0 -85 0 -85 -105 0 -105 0 0 85 0 85 -30 0
-30 0 0 -210z"/>
<path d="M6600 4770 l0 -210 160 0 160 0 0 30 0 30 -125 0 -125 0 0 65 0 65
110 0 110 0 0 25 0 25 -110 0 -110 0 0 60 0 60 120 0 120 0 0 30 0 30 -155 0
-155 0 0 -210z"/>
<path d="M3384 4810 c-6 -55 -9 -61 -33 -65 -68 -14 -142 -40 -203 -72 l-67
-35 -113 62 c-62 35 -117 65 -122 68 -5 3 -7 0 -5 -7 2 -6 66 -65 142 -131
l138 -120 53 36 c152 101 335 110 493 25 l53 -29 35 41 c19 22 35 44 35 49 0
14 -84 61 -152 85 -36 13 -100 26 -141 29 l-75 7 -11 58 c-7 33 -14 59 -16 59
-2 0 -7 -27 -11 -60z"/>
<path d="M3934 4648 c-59 -68 -116 -133 -127 -144 -18 -22 -18 -22 17 -71 105
-146 121 -323 44 -485 l-30 -63 43 -38 c33 -29 45 -35 55 -26 40 33 104 229
104 318 0 31 5 35 73 47 44 7 50 24 8 24 -77 0 -86 7 -98 73 -7 34 -33 103
-58 153 l-46 92 66 117 c36 65 64 120 61 122 -2 2 -52 -51 -112 -119z"/>
<path d="M3313 4555 c-133 -41 -251 -168 -282 -305 -29 -126 5 -266 89 -368
17 -20 30 -40 30 -45 0 -4 -67 -183 -150 -398 -82 -215 -150 -395 -150 -400 0
-6 37 -9 91 -7 l91 3 67 185 67 185 255 2 254 3 69 -183 c38 -100 72 -186 76
-190 4 -4 50 -6 102 -5 l96 3 -139 340 c-77 186 -138 342 -137 346 2 3 75 -33
163 -82 87 -48 161 -86 164 -84 2 3 2 6 0 8 -6 5 -240 207 -266 230 -21 18
-25 19 -40 5 -33 -28 -42 -29 -53 -8 -10 18 -5 28 35 72 26 29 55 68 65 88 76
148 62 327 -34 459 -44 59 -138 125 -209 146 -62 18 -196 19 -254 0z m226 -16
c234 -53 367 -330 264 -551 -33 -69 -101 -154 -114 -141 -4 4 -33 71 -64 148
-107 263 -117 285 -130 285 -12 0 -21 43 -41 208 -4 29 -10 50 -14 45 -4 -4
-13 -51 -19 -103 -20 -157 -17 -150 -61 -150 l-38 0 -78 -205 c-43 -113 -81
-205 -85 -205 -16 0 -82 112 -100 169 -44 144 -3 297 108 402 106 100 224 131
372 98z m-124 -621 c10 -73 21 -137 25 -141 4 -5 10 16 14 45 17 135 12 138
91 -73 l73 -194 -195 -3 c-108 -1 -197 -1 -199 1 -2 2 30 93 70 203 41 110 81
221 88 247 6 26 13 47 14 47 0 0 9 -60 19 -132z"/>
<path d="M2931 4466 c-35 -59 -81 -190 -81 -234 0 -15 -3 -43 -6 -64 -6 -33
-9 -37 -48 -42 -69 -11 -73 -23 -9 -30 l59 -7 13 -64 c14 -67 57 -169 90 -211
l20 -25 -41 -72 c-22 -40 -54 -96 -70 -124 -16 -29 -26 -53 -21 -53 8 0 230
250 246 277 4 6 -10 37 -32 68 -106 151 -112 363 -15 516 l25 40 -43 39 c-24
22 -45 39 -48 40 -3 0 -21 -25 -39 -54z"/>
<path d="M9396 4288 c-176 -33 -295 -154 -304 -308 -10 -163 75 -272 259 -334
41 -14 139 -41 218 -61 210 -53 266 -86 293 -176 23 -79 -29 -167 -124 -210
-46 -21 -68 -24 -173 -24 -104 0 -127 3 -170 23 -111 51 -166 115 -181 211
l-7 43 -81 -7 c-45 -4 -83 -9 -85 -11 -11 -11 24 -145 51 -197 75 -139 209
-211 423 -224 242 -14 416 68 493 235 21 47 26 72 26 137 -1 103 -27 166 -96
230 -67 63 -141 94 -358 150 -256 66 -304 91 -317 168 -23 146 132 240 341
207 132 -21 200 -81 221 -193 8 -41 8 -42 115 -30 l62 6 -5 42 c-16 116 -90
226 -186 275 -104 53 -283 74 -415 48z"/>
<path d="M4280 3655 l0 -625 85 0 85 0 0 275 0 275 126 0 c70 0 145 -5 166
-12 81 -24 161 -123 384 -475 l39 -63 108 0 c59 0 107 2 107 5 0 13 -238 376
-284 434 -28 35 -73 78 -99 96 l-49 33 42 7 c73 12 177 72 220 126 51 65 65
108 65 209 0 72 -4 94 -28 146 -51 110 -129 164 -263 184 -38 5 -212 10 -386
10 l-318 0 0 -625z m671 465 c97 -27 154 -106 145 -199 -6 -66 -42 -123 -95
-150 -59 -31 -148 -41 -358 -41 l-193 0 0 200 0 200 233 0 c127 0 248 -5 268
-10z"/>
<path d="M5333 4266 c3 -8 110 -170 236 -360 l231 -346 0 -265 0 -265 90 0 90
0 0 266 0 266 245 354 c135 194 245 356 245 359 0 3 -45 5 -100 5 l-100 0
-134 -205 c-75 -113 -157 -241 -183 -285 -26 -44 -50 -79 -53 -79 -3 -1 -23
30 -44 67 -22 37 -103 165 -180 284 l-141 218 -104 0 c-85 0 -102 -3 -98 -14z"/>
<path d="M6897 4268 c-86 -220 -467 -1220 -467 -1227 0 -7 32 -11 89 -11 l90
0 19 53 c11 28 42 114 68 190 l49 137 255 -2 254 -3 72 -185 71 -185 97 -3
c67 -2 96 1 96 9 0 6 -113 288 -251 625 l-252 614 -92 0 c-65 0 -94 -4 -98
-12z m260 -608 l40 -105 -195 -3 c-107 -1 -197 -1 -199 1 -2 3 30 94 70 203
77 205 88 238 107 314 l12 44 63 -174 c34 -96 80 -222 102 -280z"/>
<path d="M7850 3655 l0 -625 85 0 85 0 2 476 3 475 319 -475 318 -476 89 0 89
0 0 625 0 625 -85 0 -85 0 0 -477 0 -477 -320 477 -321 477 -89 0 -90 0 0
-625z"/>
<path d="M5365 2704 c-81 -44 -110 -105 -103 -218 3 -48 12 -85 24 -107 55
-94 200 -117 281 -46 31 27 71 93 61 102 -2 1 -18 6 -35 10 -27 5 -33 4 -33
-10 0 -9 -15 -32 -34 -51 -26 -26 -42 -34 -70 -34 -86 0 -130 54 -131 162 0
78 19 112 79 142 52 26 109 10 138 -40 17 -29 24 -33 46 -28 15 4 29 8 31 10
10 9 -26 68 -57 92 -44 34 -149 42 -197 16z"/>
<path d="M5800 2510 l0 -210 130 0 130 0 0 30 0 30 -100 0 -100 0 0 180 0 180
-30 0 -30 0 0 -210z"/>
<path d="M6282 2552 c3 -182 9 -202 65 -239 38 -25 158 -25 196 0 56 37 62 57
65 239 l4 168 -30 0 -30 0 -3 -153 c-3 -124 -7 -158 -21 -179 -32 -49 -134
-49 -166 0 -14 21 -18 56 -21 179 l-3 153 -30 0 -30 0 4 -168z"/>
<path d="M6870 2510 l0 -210 110 0 c71 0 122 5 144 14 67 28 86 136 31 183
l-25 22 21 36 c15 26 19 44 15 69 -13 69 -71 94 -223 95 l-73 1 0 -210z m200
137 c30 -15 39 -67 15 -87 -8 -7 -47 -15 -85 -18 l-70 -5 0 62 0 61 58 0 c31
0 68 -6 82 -13z m30 -182 c24 -22 26 -62 3 -87 -13 -14 -31 -18 -95 -18 l-78
0 0 66 0 67 75 -5 c53 -4 81 -10 95 -23z"/>
</g>
</svg>
