<svg id="Layer_1" data-name="Layer 1" xmlns="http://www.w3.org/2000/svg" viewBox="0 0 720 540"><defs><style>.cls-1{font-size:97.39px;fill:#c4161c;letter-spacing:0.08em;}.cls-1,.cls-6,.cls-7{font-family:BodoniXT;}.cls-2{letter-spacing:-0.04em;}.cls-3{letter-spacing:-0.03em;}.cls-4{letter-spacing:0.08em;}.cls-5{letter-spacing:0em;}.cls-6,.cls-7{font-size:32.02px;}.cls-10,.cls-6,.cls-7{fill:#241d1b;}.cls-6,.cls-9{letter-spacing:0.32em;}.cls-7{letter-spacing:0.26em;}.cls-8{letter-spacing:0.23em;}.cls-11{fill:#fff;}</style></defs><text class="cls-1" transform="translate(160.53 301.76)">A<tspan class="cls-2" x="72.75" y="0">R</tspan><tspan class="cls-3" x="138.98" y="0">Y</tspan><tspan class="cls-4" x="201.31" y="0">A</tspan><tspan class="cls-5" x="274.06" y="0">N</tspan><tspan x="343.9" y="0">S</tspan></text><text class="cls-6" transform="translate(305.97 215.71)">THE</text><text class="cls-7" transform="translate(294.35 342.96)">C<tspan class="cls-8" x="29.81" y="0">L</tspan><tspan class="cls-9" x="56.64" y="0">UB</tspan></text><path class="cls-10" d="M175.71,218.45l-16-13.93,19.8,10.95A16.63,16.63,0,0,0,175.71,218.45Z"/><path class="cls-10" d="M213.52,220.46l13.93-15.94-11,19.8A16.33,16.33,0,0,0,213.52,220.46Z"/><path class="cls-10" d="M173.6,257.26,159.67,273.2l11-19.8A16.56,16.56,0,0,0,173.6,257.26Z"/><path class="cls-10" d="M212.6,258.45l16,13.93-19.8-10.95A16.63,16.63,0,0,0,212.6,258.45Z"/><path class="cls-10" d="M190.91,198.93c.31.27-1.75,12.79-1.75,12.79l4.43-.3Z"/><path class="cls-10" d="M233.49,236.21c-.27.31-12.79-1.75-12.79-1.75l.3,4.43Z"/><path class="cls-10" d="M153.63,241.51c.27-.31,12.79,1.74,12.79,1.74l-.3-4.42Z"/><path class="cls-10" d="M173.6,257.25a27.17,27.17,0,0,1-1.87-34.49l-4.66-4.07a33.34,33.34,0,0,0,2.45,43.23Z"/><path class="cls-10" d="M175.71,218.44a27.18,27.18,0,0,1,33.39-1.84l4.08-4.67a33.38,33.38,0,0,0-42.18,2.4Z"/><path class="cls-10" d="M213.52,220.46a27.19,27.19,0,0,1,2.67,33.34l4.71,4.11a33.37,33.37,0,0,0-3.3-42.12Z"/><path class="cls-10" d="M190.57,238.84h1a2,2,0,0,1,4,0h1l-3-21.43Z"/><path class="cls-10" d="M195.55,238.87a2,2,0,0,1-3.4,1.39,2,2,0,0,1-.58-1.41h-1l3,21.44,3-21.41Z"/><path class="cls-10" d="M216.83,237.28a23.34,23.34,0,1,0-33.78,22.38l.12-.35A22.95,22.95,0,0,1,192,216c.53,0,1.06,0,1.58,0a23,23,0,0,1,10.09,43.56l.12.34A23.36,23.36,0,0,0,216.83,237.28Z"/><circle class="cls-11" cx="193.66" cy="238.99" r="2.18"/></svg>