<?xml version="1.0" standalone="no"?>
<!DOCTYPE svg PUBLIC "-//W3C//DTD SVG 20010904//EN"
 "http://www.w3.org/TR/2001/REC-SVG-20010904/DTD/svg10.dtd">
<svg version="1.0" xmlns="http://www.w3.org/2000/svg"
 width="466.000000pt" height="517.000000pt" viewBox="0 0 466.000000 517.000000"
 preserveAspectRatio="xMidYMid meet">
<metadata>
Created by potrace 1.16, written by Peter Selinger 2001-2019
</metadata>
<g transform="translate(0.000000,517.000000) scale(0.100000,-0.100000)"
fill="#000000" stroke="none">
<path d="M2334 4895 c3 -132 9 -378 12 -547 l6 -308 57 0 c129 0 306 -46 457
-120 261 -126 474 -353 584 -620 31 -76 70 -209 70 -241 0 -10 8 -20 18 -22
54 -15 264 -48 270 -43 11 11 -25 196 -59 302 -56 178 -150 351 -268 492 l-52
63 91 125 c50 69 90 129 88 134 -2 4 -61 -34 -131 -85 l-128 -94 -77 62 c-193
156 -399 252 -646 301 l-110 22 -85 401 c-48 221 -90 405 -94 410 -5 4 -6
-100 -3 -232z"/>
<path d="M2023 4289 c-227 -47 -455 -158 -626 -303 l-66 -56 -132 96 c-72 52
-133 93 -136 91 -2 -3 39 -64 92 -136 l96 -132 -49 -57 c-156 -180 -276 -437
-319 -678 -9 -51 -21 -95 -27 -97 -6 -2 -190 -41 -408 -88 -219 -46 -398 -87
-398 -91 0 -3 62 -4 137 -2 76 2 321 7 544 10 l406 6 6 92 c21 334 215 676
497 875 131 92 239 140 460 203 l44 13 22 120 c31 162 31 155 -13 154 -21 0
-79 -9 -130 -20z"/>
<path d="M2125 3884 c-407 -90 -713 -382 -816 -777 -28 -104 -37 -324 -19
-435 33 -211 127 -403 272 -558 69 -73 113 -108 127 -99 6 3 -32 47 -82 98
-397 402 -407 1028 -21 1436 91 97 180 162 299 221 400 196 863 120 1181 -195
266 -262 368 -637 274 -1000 -27 -101 -95 -247 -157 -334 -26 -36 -82 -100
-126 -143 -79 -77 -91 -117 -17 -58 102 81 225 254 282 396 59 148 73 226 73
414 0 149 -3 175 -28 265 -101 368 -371 642 -742 751 -79 23 -112 27 -260 30
-128 3 -187 0 -240 -12z"/>
<path d="M2330 3796 c0 -7 -29 -225 -65 -483 l-64 -469 -489 -1344 -488 -1345
-177 -3 -177 -2 0 -60 0 -60 465 0 465 0 0 60 0 60 -215 0 c-118 0 -215 3
-215 6 0 3 50 148 111 322 61 175 120 343 131 375 l20 57 466 -2 465 -3 124
-370 c67 -203 123 -373 123 -377 0 -5 -99 -8 -220 -8 l-220 0 0 -60 0 -60 695
0 695 0 0 60 0 60 -174 0 -174 0 -31 88 c-17 48 -227 652 -466 1342 l-436
1255 -67 487 c-37 269 -70 488 -74 488 -5 0 -8 -6 -8 -14z m71 -895 c20 -20
29 -39 29 -61 0 -43 -47 -90 -90 -90 -22 0 -41 9 -61 29 -38 39 -39 84 -2 123
37 39 84 38 124 -1z m-97 -1879 c-111 -1 -297 -1 -412 0 l-210 3 207 570 c114
314 210 579 215 590 6 15 57 -126 206 -570 l197 -590 -203 -3z"/>
<path d="M4005 2839 c-203 -3 -391 -7 -417 -8 l-48 -1 0 -49 c0 -72 -26 -209
-60 -314 -57 -176 -145 -322 -284 -464 -43 -46 -78 -84 -75 -86 87 -69 482
-347 486 -344 3 4 -36 63 -86 132 l-91 125 53 68 c162 202 261 414 308 656 11
55 23 104 27 107 4 3 183 43 397 89 215 45 397 86 405 91 16 9 -38 9 -615 -2z"/>
<path d="M870 2661 c0 -50 34 -205 65 -298 53 -158 153 -338 263 -470 l51 -61
-93 -129 c-52 -70 -90 -129 -86 -131 7 -3 257 175 438 311 l52 40 -88 91
c-165 172 -263 359 -316 607 -5 24 -12 26 -146 50 l-140 25 0 -35z"/>
</g>
</svg>
