<?xml version="1.0" standalone="no"?>
<!DOCTYPE svg PUBLIC "-//W3C//DTD SVG 20010904//EN"
 "http://www.w3.org/TR/2001/REC-SVG-20010904/DTD/svg10.dtd">
<svg version="1.0" xmlns="http://www.w3.org/2000/svg"
 width="2675.000000pt" height="1381.000000pt" viewBox="0 0 2675.000000 1381.000000"
 preserveAspectRatio="xMidYMid meet">
<metadata>
Created by potrace 1.16, written by Peter Selinger 2001-2019
</metadata>
<g transform="translate(0.000000,1381.000000) scale(0.100000,-0.100000)"
fill="#ffffff" stroke="none">
<path d="M3981 10805 c-2 -31 -50 -377 -53 -380 -2 -2 -48 -11 -103 -20 -286
-49 -553 -152 -775 -300 -45 -30 -86 -55 -92 -55 -6 0 -190 99 -410 221 -220
122 -401 219 -404 216 -4 -4 904 -803 933 -820 8 -5 35 11 70 39 168 137 384
244 602 298 128 32 157 37 281 45 326 24 668 -61 949 -236 l75 -47 39 45 c125
141 209 240 206 243 -25 22 -199 127 -276 166 -258 129 -510 193 -810 207
-118 5 -143 9 -147 22 -3 9 -21 93 -41 186 -38 183 -43 201 -44 170z"/>
<path d="M10990 10695 l0 -105 175 0 175 0 0 -550 0 -550 120 0 120 0 0 550 0
550 175 0 175 0 0 105 0 105 -470 0 -470 0 0 -105z"/>
<path d="M12760 10145 l0 -655 120 0 120 0 0 295 0 295 315 0 315 0 0 -295 0
-295 115 0 115 0 0 655 0 655 -115 0 -115 0 0 -255 0 -255 -315 0 -315 0 0
255 0 255 -120 0 -120 0 0 -655z"/>
<path d="M14780 10333 c0 -258 4 -494 10 -526 20 -122 84 -219 176 -266 77
-40 163 -51 412 -51 l232 0 0 105 0 105 -217 0 c-275 1 -311 12 -354 105 -15
31 -19 65 -19 153 l0 112 270 0 270 0 0 105 0 105 -270 0 -270 0 0 155 0 155
290 0 290 0 0 105 0 105 -410 0 -410 0 0 -467z"/>
<path d="M5720 10025 c-223 -256 -406 -469 -408 -475 -2 -5 14 -31 37 -56 115
-130 235 -345 295 -525 44 -133 63 -224 78 -377 29 -299 -50 -649 -207 -919
l-53 -93 135 -117 c74 -65 140 -119 146 -121 14 -3 99 130 157 247 127 256
200 558 200 831 0 95 2 109 18 114 9 2 97 21 194 42 98 21 177 39 175 40 -1 1
-58 9 -127 18 -69 9 -157 21 -196 27 l-72 11 -7 57 c-3 31 -18 107 -31 170
-60 268 -163 491 -349 756 -13 18 1 47 166 345 258 465 272 490 262 490 -4 0
-190 -210 -413 -465z"/>
<path d="M3920 9825 c-306 -51 -560 -184 -775 -406 -242 -251 -369 -552 -382
-904 -11 -291 62 -562 215 -800 93 -146 245 -302 380 -390 23 -15 42 -30 42
-32 0 -2 -214 -458 -475 -1012 -261 -555 -475 -1013 -475 -1020 0 -8 85 -11
326 -9 l326 3 150 328 151 327 731 0 731 0 150 -330 150 -330 328 0 c260 0
327 3 327 13 0 7 -213 467 -474 1021 l-474 1009 81 60 c282 208 482 530 542
874 21 116 20 342 0 469 -88 547 -508 987 -1065 1116 -114 26 -389 33 -510 13z
m510 -49 c523 -121 913 -520 1027 -1049 14 -62 18 -128 18 -272 0 -172 -3
-200 -27 -296 -65 -258 -180 -463 -362 -645 -82 -81 -221 -192 -231 -183 -1 2
-123 260 -270 573 l-268 570 -83 430 c-89 462 -93 480 -98 475 -2 -2 -43 -206
-91 -454 l-87 -450 -265 -565 c-146 -311 -269 -568 -272 -573 -12 -13 -151 93
-241 183 -400 403 -502 1014 -255 1525 125 258 347 487 596 614 118 60 284
115 410 135 137 22 361 14 499 -18z m-36 -2806 l233 -515 -490 -3 c-270 -1
-492 -1 -494 1 -1 2 103 237 233 523 130 285 240 530 246 544 l10 25 14 -30
c8 -16 120 -262 248 -545z"/>
<path d="M2507 9563 c-209 -314 -316 -644 -334 -1028 l-6 -141 -186 -38 c-188
-39 -238 -56 -165 -56 21 0 112 -10 201 -22 l163 -22 5 -36 c52 -337 153 -607
324 -863 l72 -107 -220 -399 c-122 -219 -221 -401 -221 -405 0 -4 4 -5 10 -1
5 3 192 215 415 470 l406 465 -57 67 c-443 521 -489 1317 -109 1883 30 46 52
87 48 90 -5 4 -62 53 -128 111 -66 57 -127 110 -137 117 -14 11 -24 2 -81 -85z"/>
<path d="M14235 7055 c-462 -981 -841 -1788 -843 -1794 -3 -8 96 -11 325 -11
l329 0 150 328 150 327 733 0 733 0 151 -327 150 -328 328 0 c181 0 329 4 329
9 0 16 -1676 3575 -1686 3577 -5 2 -387 -800 -849 -1781z m1094 -62 c133 -293
241 -535 241 -538 0 -3 -221 -5 -491 -5 -404 0 -490 2 -487 13 9 38 484 1074
490 1069 3 -4 115 -246 247 -539z"/>
<path d="M17830 7020 l0 -1770 310 0 310 0 2 1064 3 1063 1000 -974 c550 -535
1071 -1042 1158 -1125 l157 -150 0 1771 0 1771 -310 0 -310 0 -2 -1064 -3
-1065 -1150 1125 c-632 618 -1153 1124 -1157 1124 -5 0 -8 -796 -8 -1770z"/>
<path d="M22875 8715 c-241 -45 -440 -148 -591 -307 -168 -177 -243 -389 -231
-653 11 -231 80 -404 219 -551 167 -176 334 -271 773 -439 437 -167 573 -252
647 -403 31 -62 33 -74 33 -167 0 -97 -2 -104 -38 -177 -61 -125 -157 -197
-315 -240 -91 -24 -308 -29 -409 -9 -269 52 -490 206 -628 439 -21 34 -40 62
-43 62 -4 0 -449 -276 -461 -287 -8 -6 49 -114 105 -201 68 -104 209 -250 312
-325 270 -195 644 -287 1039 -257 481 37 804 219 962 545 48 99 68 163 86 285
19 121 19 239 0 360 -51 335 -248 559 -670 761 -66 31 -246 108 -400 169 -331
132 -418 176 -495 247 -79 73 -105 132 -105 243 0 73 4 93 28 141 70 143 231
223 447 222 204 -2 368 -62 488 -181 38 -37 78 -80 88 -95 l19 -28 217 148
c120 81 217 154 218 161 0 23 -106 155 -188 234 -145 139 -306 227 -510 280
-108 28 -133 31 -317 34 -147 2 -221 -1 -280 -11z"/>
<path d="M6880 6960 l0 -1710 310 0 310 0 0 610 0 610 298 0 299 0 365 -607
365 -608 352 -3 c193 -1 351 0 351 4 0 3 -183 305 -406 671 -223 366 -408 671
-410 677 -3 7 13 21 38 32 169 76 343 243 442 424 47 87 102 255 117 359 16
116 7 334 -20 433 -62 235 -184 427 -366 573 -101 82 -286 175 -420 212 l-100
28 -762 3 -763 3 0 -1711z m1445 1136 c227 -60 375 -263 375 -514 0 -161 -43
-280 -138 -383 -67 -73 -132 -114 -230 -147 -76 -26 -80 -26 -454 -30 l-378
-4 0 546 0 546 388 0 c291 0 399 -4 437 -14z"/>
<path d="M10103 8663 c3 -5 280 -475 616 -1046 l611 -1039 0 -664 0 -664 310
0 310 0 0 664 0 663 615 1044 614 1044 -331 3 c-183 1 -335 -1 -339 -5 -5 -5
-200 -339 -435 -743 -234 -404 -427 -736 -428 -737 0 -1 -197 333 -436 743
l-434 744 -339 0 c-186 0 -336 -3 -334 -7z"/>
<path d="M5194 7262 c-28 -27 -77 -65 -108 -86 -31 -20 -56 -40 -56 -44 0 -4
231 -134 513 -289 281 -156 545 -301 585 -323 39 -23 72 -37 72 -32 0 12 -920
814 -939 818 -9 2 -39 -18 -67 -44z"/>
<path d="M10658 4459 c-254 -37 -465 -214 -544 -455 -26 -79 -29 -103 -29
-209 0 -138 22 -225 82 -335 43 -78 156 -192 235 -238 270 -159 627 -121 845
88 l49 47 -78 67 -78 68 -47 -41 c-185 -164 -478 -158 -649 13 -178 179 -178
483 0 661 168 167 447 178 637 23 l55 -45 74 63 c41 35 76 68 78 73 6 18 -123
112 -213 156 -132 65 -269 86 -417 64z"/>
<path d="M12130 3795 l0 -655 380 0 380 0 0 105 0 105 -260 0 -260 0 0 550 0
550 -120 0 -120 0 0 -655z"/>
<path d="M13670 4023 c0 -268 4 -451 11 -492 27 -155 123 -289 251 -349 90
-42 159 -57 273 -57 55 0 125 7 155 14 146 36 266 127 320 244 56 118 60 159
60 635 l0 432 -120 0 -119 0 -3 -452 c-3 -452 -3 -453 -27 -505 -28 -62 -92
-125 -147 -144 -50 -18 -188 -18 -238 0 -55 19 -119 82 -147 144 -24 52 -24
53 -27 505 l-3 452 -119 0 -120 0 0 -427z"/>
<path d="M15660 3794 l0 -655 318 3 c303 3 320 5 375 27 119 47 202 140 233
261 44 172 -34 355 -174 406 -50 18 -75 34 -54 34 25 0 101 82 119 128 28 73
24 193 -9 257 -50 97 -135 160 -246 184 -31 6 -157 11 -307 11 l-255 0 0 -656z
m530 424 c112 -57 120 -185 16 -262 -24 -18 -45 -21 -167 -24 l-139 -4 0 156
0 156 123 0 c107 0 128 -3 167 -22z m65 -507 c22 -10 52 -31 67 -47 92 -99 45
-257 -91 -303 -19 -6 -98 -11 -182 -11 l-149 0 0 190 0 190 158 0 c131 0 163
-3 197 -19z"/>
</g>
</svg>
