<?xml version="1.0" standalone="no"?>
<!DOCTYPE svg PUBLIC "-//W3C//DTD SVG 20010904//EN"
 "http://www.w3.org/TR/2001/REC-SVG-20010904/DTD/svg10.dtd">
<svg version="1.0" xmlns="http://www.w3.org/2000/svg"
 width="1501.000000pt" height="1126.000000pt" viewBox="0 0 1501.000000 1126.000000"
 preserveAspectRatio="xMidYMid meet">
<metadata>
Created by potrace 1.16, written by Peter Selinger 2001-2019
</metadata>
<g transform="translate(0.000000,1126.000000) scale(0.100000,-0.100000)"
fill="#000000" stroke="none">
<path d="M6410 7151 c0 -33 -3 -66 -6 -75 -4 -10 -1 -16 9 -16 9 0 17 14 21
39 7 48 54 91 97 91 l29 0 0 -205 0 -205 -35 0 c-19 0 -35 -4 -35 -10 0 -6 45
-10 115 -10 70 0 115 4 115 10 0 6 -16 10 -35 10 l-35 0 0 206 0 207 38 -6
c44 -7 78 -43 88 -92 11 -60 24 -38 24 40 l0 75 -195 0 -195 0 0 -59z"/>
<path d="M7060 7200 c0 -5 16 -10 35 -10 l35 0 0 -205 0 -205 -35 0 c-19 0
-35 -4 -35 -10 0 -6 43 -10 110 -10 67 0 110 4 110 10 0 6 -16 10 -35 10 l-35
0 0 100 0 100 90 0 90 0 0 -100 0 -100 -35 0 c-19 0 -35 -4 -35 -10 0 -6 43
-10 110 -10 67 0 110 4 110 10 0 6 -13 10 -30 10 l-30 0 0 205 0 205 30 0 c17
0 30 5 30 10 0 6 -43 10 -110 10 -67 0 -110 -4 -110 -10 0 -5 16 -10 35 -10
l35 0 0 -95 0 -95 -90 0 -90 0 0 95 0 95 35 0 c19 0 35 5 35 10 0 6 -43 10
-110 10 -67 0 -110 -4 -110 -10z"/>
<path d="M7790 7200 c0 -5 16 -10 35 -10 l35 0 0 -205 0 -205 -35 0 c-19 0
-35 -4 -35 -10 0 -6 70 -10 189 -10 214 0 201 -5 201 86 0 63 -15 71 -30 15
-16 -62 -49 -81 -136 -81 l-74 0 0 100 0 100 33 0 c38 0 62 -21 72 -62 14 -56
25 -26 25 67 0 91 -11 121 -26 73 -11 -39 -35 -58 -71 -58 l-33 0 0 95 0 95
63 0 c77 0 107 -15 130 -63 19 -37 37 -49 37 -23 0 7 -3 34 -6 60 l-7 46 -183
0 c-116 0 -184 -4 -184 -10z"/>
<path d="M3977 7093 c-3 -10 -8 -41 -12 -69 l-6 -51 -57 -10 c-76 -15 -156
-45 -224 -87 l-56 -34 -99 55 c-142 79 -196 106 -192 95 4 -10 324 -292 332
-292 3 0 32 19 66 41 171 114 371 126 560 33 l74 -37 44 47 c25 25 43 52 41
58 -6 17 -114 75 -183 98 -33 11 -102 26 -154 32 l-94 13 -14 59 c-15 68 -19
75 -26 49z"/>
<path d="M4609 6848 c-74 -84 -140 -160 -147 -169 -10 -14 -5 -27 32 -82 57
-85 86 -162 99 -262 13 -101 -7 -206 -56 -305 l-34 -68 49 -42 c27 -23 55 -40
62 -37 19 7 82 142 100 212 8 33 18 92 22 132 l6 72 57 12 c85 17 91 25 25 33
-81 10 -94 15 -94 35 0 60 -67 234 -114 296 l-24 31 80 143 c44 78 78 145 75
147 -2 3 -65 -64 -138 -148z"/>
<path d="M3923 6756 c-128 -32 -261 -134 -316 -241 -78 -155 -77 -341 4 -482
36 -62 101 -131 158 -167 22 -15 41 -30 41 -35 0 -5 -61 -177 -136 -382 -75
-206 -141 -386 -146 -401 -10 -27 -12 -28 -89 -28 -78 0 -79 0 -79 -25 l0 -25
215 0 215 0 0 25 0 25 -106 0 c-97 0 -106 2 -99 18 3 9 32 90 63 180 l57 162
220 0 220 0 58 -173 c31 -95 57 -176 57 -180 0 -4 -45 -7 -100 -7 l-100 0 0
-25 0 -25 320 0 320 0 0 25 c0 23 -2 24 -82 27 l-82 3 -137 395 c-76 217 -138
400 -138 407 -1 6 18 22 42 36 169 101 263 334 212 532 -43 166 -156 292 -313
346 -73 26 -209 33 -279 15z m278 -35 c123 -47 233 -157 279 -279 61 -159 23
-354 -93 -479 -51 -56 -126 -108 -137 -97 -5 5 -38 94 -75 199 -63 182 -67
199 -97 420 -17 126 -34 234 -38 238 -4 4 -21 -97 -39 -225 -31 -229 -33 -236
-104 -435 -40 -112 -75 -203 -78 -203 -19 0 -119 87 -156 135 -62 82 -86 152
-91 265 -3 78 0 107 18 159 53 158 172 271 333 316 72 21 205 14 278 -14z
m-85 -1273 c5 -17 -9 -18 -190 -18 -108 0 -196 2 -196 4 0 3 183 512 196 546
5 11 115 -298 190 -532z"/>
<path d="M3468 6683 c-57 -67 -114 -222 -125 -344 l-8 -82 -70 -18 c-38 -9
-65 -18 -60 -19 6 -1 39 -7 74 -14 l64 -11 14 -70 c13 -64 68 -194 108 -255
16 -24 15 -28 -60 -163 -43 -76 -75 -140 -72 -143 3 -3 71 70 151 161 l146
168 -34 46 c-140 192 -153 435 -35 626 l31 50 -48 42 c-27 23 -52 43 -55 43
-3 0 -13 -8 -21 -17z"/>
<path d="M7991 5798 c-112 -310 -222 -611 -244 -670 l-39 -108 -79 0 c-78 0
-79 0 -79 -25 l0 -25 215 0 215 0 0 25 0 25 -106 0 c-97 0 -106 2 -99 18 3 9
32 90 63 180 l57 162 220 0 220 0 58 -173 c31 -95 57 -176 57 -180 0 -4 -45
-7 -100 -7 l-100 0 0 -25 0 -25 320 0 320 0 0 25 c0 23 -2 24 -82 27 l-82 3
-231 667 -230 668 -35 0 -35 0 -204 -562z m315 -350 c5 -17 -9 -18 -190 -18
-108 0 -196 2 -196 4 0 3 183 512 196 546 5 11 115 -298 190 -532z"/>
<path d="M10953 6349 c-116 -22 -223 -109 -263 -214 -46 -120 -34 -287 27
-379 55 -84 150 -144 293 -186 292 -85 370 -147 370 -298 0 -115 -60 -205
-169 -256 -71 -32 -208 -29 -276 6 -90 47 -168 149 -207 270 -20 63 -24 68
-50 68 l-28 0 0 -200 c0 -230 1 -232 83 -160 l46 40 47 -29 c80 -51 137 -66
254 -66 97 0 110 2 172 32 134 63 215 179 238 337 22 155 -11 285 -95 375 -61
65 -154 110 -335 161 -176 51 -239 79 -263 119 -24 41 -31 108 -17 160 14 55
81 128 140 154 63 28 168 27 237 -3 98 -42 194 -173 210 -286 5 -42 7 -44 39
-44 l34 0 0 195 c0 224 -2 227 -77 153 -40 -39 -44 -41 -60 -25 -32 28 -126
66 -193 76 -74 12 -97 12 -157 0z"/>
<path d="M4960 6305 l0 -25 100 0 100 0 0 -630 0 -630 -100 0 -100 0 0 -25 0
-25 330 0 330 0 0 25 0 25 -100 0 -100 0 0 325 0 325 73 0 c105 0 166 -21 214
-73 59 -64 76 -124 92 -335 10 -131 38 -202 99 -252 60 -49 118 -63 241 -58
121 6 141 12 141 42 0 19 -4 21 -56 18 -62 -4 -103 9 -122 38 -7 11 -17 82
-22 158 -21 298 -79 385 -302 457 l-68 21 78 18 c102 24 208 74 256 121 57 57
76 105 76 201 0 137 -55 214 -187 264 -85 32 -207 40 -605 40 l-368 0 0 -25z
m765 -45 c81 -31 118 -111 119 -255 0 -112 -15 -165 -61 -216 -48 -53 -106
-69 -250 -69 l-113 0 0 281 0 282 138 -5 c75 -3 151 -11 167 -18z"/>
<path d="M6250 6305 c0 -24 2 -25 74 -25 l74 0 216 -350 216 -351 0 -279 0
-280 -110 0 -110 0 0 -25 0 -25 350 0 350 0 0 25 0 25 -115 0 -115 0 0 303 1
302 178 325 179 325 81 3 c79 3 81 4 81 27 l0 25 -215 0 -215 0 0 -25 c0 -24
1 -24 103 -27 l104 -3 -161 -287 c-89 -158 -163 -288 -166 -288 -3 0 -82 131
-177 290 l-171 290 104 0 104 0 0 25 0 25 -330 0 -330 0 0 -25z"/>
<path d="M9100 6305 l0 -25 100 0 100 0 0 -630 0 -630 -100 0 -100 0 0 -25 0
-25 230 0 230 0 0 25 0 25 -100 0 -100 0 0 605 c0 333 2 605 3 605 2 0 197
-290 433 -645 393 -591 431 -644 457 -645 l27 0 0 670 0 670 100 0 100 0 0 25
0 25 -230 0 -230 0 0 -25 0 -25 100 0 100 0 0 -422 0 -421 -302 446 -302 447
-258 0 -258 0 0 -25z"/>
<path d="M4388 5842 c-21 -15 -37 -30 -38 -33 0 -4 75 -48 168 -99 92 -51 187
-104 211 -118 24 -14 42 -20 40 -13 -6 17 -321 291 -334 290 -5 0 -27 -13 -47
-27z"/>
<path d="M6329 4556 c-58 -20 -93 -51 -123 -106 -53 -97 -32 -230 47 -296 67
-56 143 -69 210 -35 31 16 38 16 48 5 22 -26 29 -14 29 51 0 36 -4 65 -10 65
-5 0 -18 -20 -29 -44 -22 -51 -61 -76 -116 -76 -88 0 -110 42 -110 210 0 141
11 182 56 205 36 19 73 19 114 -1 30 -14 65 -64 65 -93 0 -6 5 -11 10 -11 6 0
10 28 10 65 0 65 -6 75 -27 54 -9 -9 -22 -8 -53 5 -48 19 -73 20 -121 2z"/>
<path d="M6780 4550 c0 -5 14 -10 30 -10 l30 0 0 -205 0 -205 -30 0 c-16 0
-30 -4 -30 -10 0 -6 68 -10 185 -10 l185 0 0 75 c0 43 -4 75 -10 75 -5 0 -10
-9 -10 -21 0 -34 -29 -85 -56 -98 -14 -6 -52 -11 -84 -11 l-60 0 0 205 0 205
35 0 c19 0 35 5 35 10 0 6 -43 10 -110 10 -67 0 -110 -4 -110 -10z"/>
<path d="M7330 4550 c0 -5 16 -10 35 -10 l35 0 0 -172 c0 -196 9 -226 75 -254
46 -19 125 -18 175 2 67 27 74 52 78 252 l4 172 29 0 c16 0 29 5 29 10 0 6
-32 10 -75 10 -43 0 -75 -4 -75 -10 0 -5 16 -10 35 -10 l35 0 0 -152 c0 -169
-10 -221 -44 -244 -35 -22 -91 -28 -127 -14 -51 21 -59 56 -59 245 l0 165 35
0 c19 0 35 5 35 10 0 6 -43 10 -110 10 -67 0 -110 -4 -110 -10z"/>
<path d="M8020 4550 c0 -5 16 -10 35 -10 l35 0 0 -205 0 -205 -35 0 c-19 0
-35 -4 -35 -10 0 -13 264 -13 312 0 48 14 88 61 88 105 0 44 -39 89 -93 108
-23 9 -34 16 -24 16 35 2 79 33 93 67 26 62 -5 112 -81 133 -51 14 -295 15
-295 1z m268 -26 c18 -13 22 -25 22 -73 0 -77 -21 -101 -90 -101 l-50 0 0 95
0 95 48 0 c27 0 57 -7 70 -16z m2 -204 c24 -13 43 -79 34 -117 -14 -61 -29
-73 -94 -73 l-60 0 0 100 0 100 51 0 c28 0 59 -5 69 -10z"/>
</g>
</svg>
